<svg xmlns="http://www.w3.org/2000/svg" width="50" height="51.021" viewBox="0 0 50 51.021">
  <g id="line-icon" transform="translate(-7.776 -8.156)">
    <path id="logo" d="M121.176,123.487a26.7,26.7,0,0,1,17.319,6.055,20.338,20.338,0,0,1,7.112,10.939,18.476,18.476,0,0,1-2.47,14.8,39.079,39.079,0,0,1-7.487,8.229,86.6,86.6,0,0,1-14.334,10.3,7.635,7.635,0,0,1-1.407.636c-.8.234-1.36-.318-1.219-1.188.063-.418.266-.82.36-1.238.25-1.288.547-2.576.688-3.9.109-1-.391-1.438-1.329-1.522a26.018,26.018,0,0,1-15.475-6.69,19.764,19.764,0,0,1-6.674-13.364,18.761,18.761,0,0,1,3.611-12.695,24.521,24.521,0,0,1,14.287-9.5A25.346,25.346,0,0,1,121.176,123.487Zm-.406,20.289c.172.234.266.334.328.435q2.274,3.312,4.564,6.624a1.383,1.383,0,0,0,1.61.7,1.419,1.419,0,0,0,.907-1.505q0-5.143-.016-10.3a1.369,1.369,0,0,0-1.313-1.472,1.4,1.4,0,0,0-1.3,1.539c0,1.873,0,3.747-.016,5.637,0,.167-.031.318-.063.6-.172-.217-.266-.351-.344-.468-1.485-2.158-2.954-4.315-4.439-6.456-.516-.736-1-.97-1.626-.769-.641.217-.922.736-.922,1.673q-.024,4.943-.016,9.885c0,1.037.516,1.656,1.313,1.673.813.017,1.329-.6,1.344-1.622.016-1.255-.016-2.526-.016-3.78Zm11.8-2.693h3.345a1.425,1.425,0,1,0,.031-2.843c-1.5-.017-2.985-.017-4.486,0-1.063.017-1.547.535-1.563,1.706-.016,1,0,2.007,0,3.027,0,2.342-.016,4.667-.016,7.008,0,1.087.484,1.606,1.485,1.606h4.752a1.281,1.281,0,0,0,1.282-.937,1.417,1.417,0,0,0-1.313-1.873c-1.172-.017-2.345,0-3.533,0v-2.425h3.486a1.405,1.405,0,0,0,.016-2.81c-.359-.017-.719,0-1.094,0h-2.407C132.571,142.655,132.571,141.919,132.571,141.083Zm-24.994,7.694v-.886c0-2.676,0-5.352-.016-8.028,0-.987-.547-1.606-1.313-1.606s-1.3.636-1.3,1.622q-.023,5.043-.016,10.086c0,1.07.5,1.589,1.5,1.606h4.549A1.363,1.363,0,0,0,112.5,150.2a1.424,1.424,0,0,0-1.563-1.422Zm6.1-3.9h-.016v5.085c0,.97.531,1.589,1.313,1.606.782,0,1.313-.6,1.313-1.572,0-3.412-.016-6.807-.031-10.22a1.69,1.69,0,0,0-.2-.836,1.174,1.174,0,0,0-1.438-.585,1.4,1.4,0,0,0-.938,1.472Z" transform="translate(-88.421 -115.328)" fill="#fff"/>
  </g>
</svg>
