<svg xmlns="http://www.w3.org/2000/svg" width="322" height="60" viewBox="0 0 322 60">
  <g id="main-logo" transform="translate(-158.108 -614.894)">
    <path id="Path_1" data-name="Path 1" d="M123.483-342.308l-18.1,58.517h24.766l18.416-58.517Z" transform="translate(52.723 958.484)" fill="#f97d1d"/>
    <path id="Path_2" data-name="Path 2" d="M236.923-328.59v44.931h24.131V-328.59l3.491-12.952c-.12.042-5.494,0-5.494,0l-3.908,11.834h-2.931l3.907-11.834h-6.288l-4.313,12.952Z" transform="translate(-24.441 957.622)" fill="#f97d1d"/>
    <path id="Path_3" data-name="Path 3" d="M334.613-329.257l71.77-13.028-4.133,16.952-19.164,3.3-13.527,38.928H344.383l10.9-33.12-25.739,4.4Z" transform="translate(-80.558 957.931)" fill="#f97d1d"/>
    <path id="Path_4" data-name="Path 4" d="M516.515-344.106h24.612L540-338.286h48.473l-16.533,54.108h-24.8l10.145-35.39H534.176l-6.951,22.021H502.048Z" transform="translate(-180.723 959)" fill="#f97d1d"/>
    <path id="Path_5" data-name="Path 5" d="M697.953-342.425H723.1l-17.776,59.306-25.725-.725Z" transform="translate(-278.977 958.013)" fill="#f97d1d"/>
    <path id="Path_6" data-name="Path 6" d="M786.124-342.425,767.48-283.408h37.142l5.058-16.172-12.862-.483,13.874-42.362Z" transform="translate(-330.584 958.013)" fill="#f97d1d"/>
  </g>
</svg>
