<svg xmlns="http://www.w3.org/2000/svg" width="50" height="49.999" viewBox="0 0 50 49.999">
  <path id="phone-icon" d="M2996.583,695.28a25,25,0,1,1-25-25,25,25,0,0,1,25,25Zm-9.614-8.689c-1.311-1.816-4.421-4.96-15.391-4.96s-14.059,3.146-15.381,4.96a12.666,12.666,0,0,0-1.275,4.136,1.639,1.639,0,0,0,1.66,1.816h4.96a1.758,1.758,0,0,0,1.769-1.816s-.039-1.462-.045-2.175c-.006-1.595,1.817-1.86,2.419-1.86v3c0,3.112-3.1,4.358-5.943,9.253a21.935,21.935,0,0,0-2.218,7.067,2.756,2.756,0,0,0,2.769,2.924H2982.9a2.758,2.758,0,0,0,2.759-2.924,21.961,21.961,0,0,0-2.219-7.067c-2.842-4.9-5.951-6.141-5.951-9.253v-3c.6,0,2.43.267,2.425,1.86,0,.713-.039,2.175-.039,2.175a1.754,1.754,0,0,0,1.767,1.816h4.95a1.652,1.652,0,0,0,1.661-1.816,12.484,12.484,0,0,0-1.283-4.136Zm-18.379.1h5.97v2.356h-5.97Zm9.882,13.032a6.884,6.884,0,1,1-6.894-6.879,6.884,6.884,0,0,1,6.894,6.879Z" transform="translate(-2946.583 -670.281)" fill="#fff"/>
</svg>
